<svg id="Layer_1" data-name="Layer 1" xmlns="http://www.w3.org/2000/svg" viewBox="0 0 122.88 107.38"><title>customer-care</title><path d="M81.75,54.65l-.53,1.64-.08.14-.07.09a7.23,7.23,0,0,1-2,.23,12.84,12.84,0,0,0,.61-5.63h0a1.53,1.53,0,0,1,.61-1.35,6.82,6.82,0,0,0,2.38-3.39L83,43.77a4.93,4.93,0,0,0-.19-1.05c0-.12-.08-.21-.11-.29l-.26,0A1.53,1.53,0,0,1,81,40.91c.05-4.92-.47-8-1.37-10.13-1.52-2.57-3.87-3.87-6.67-5.27-.49-.21-1-.44-1.5-.7-9.13,9.54-16.69-2.73-27.52,15.75h-.37c-.14.32-.29.64-.43,1l-.08.16a1.53,1.53,0,0,1-2.09.56q-.37-.21-.42-.18c-.06,0-.13.16-.22.37A4.7,4.7,0,0,0,40,44c-.11,2.16.59,5,2,6.37a1.51,1.51,0,0,1,.47,1.06c.16,6.6,3.09,9.12,6.65,12.19l1.5,1.3c3.57,3.18,7.34,4.82,11,4.82S68.81,68.2,72.13,65h2.42l.26,0c.49,0,1.11,0,1.81,0l-.81.77-1.48,1.4c-4,3.81-8.26,5.65-12.64,5.65s-8.92-1.91-13.07-5.6l-1.46-1.28c-3.51-3-6.49-5.59-7.42-11.21l-4.82.39a3.58,3.58,0,0,1-4.05-2.93L29,37.41a3.55,3.55,0,0,1,3.21-3.91l1.57-.13a1.78,1.78,0,0,1-.16-.65c-.94-15.35,5.68-25,14.63-29.63A29.77,29.77,0,0,1,77.36,4.6c8.18,5.27,13.52,14.91,11.12,28.32a2.45,2.45,0,0,1-.18.54l2.39.27A3.81,3.81,0,0,1,94.08,38L92.23,52.06a3.93,3.93,0,0,1-4.39,3.29h0a28.24,28.24,0,0,1-1,3.13,7,7,0,0,1-1.5,2.33c-2,2.06-8.46,2.06-10.75,2.06h-6a7,7,0,0,1-5.25,2c-3.32,0-6-1.76-6-3.93s2.68-3.93,6-3.93A7.06,7.06,0,0,1,68.4,59h6.15c1.8,0,7.14,0,8.06-.93a3,3,0,0,0,.64-1l.68-2.12-2.18-.25ZM38,27.17c3.4-15.86,21.89-25.75,39.44-15.68a18.7,18.7,0,0,1,4.27,3.36,21.12,21.12,0,0,0-6.82-7A24.84,24.84,0,0,0,62.82,4,24.39,24.39,0,0,0,50.4,6.53C43.82,9.89,38.72,16.65,38,27.17ZM44.78,73,54,97.19,58.64,84l-2.27-2.48c-1.71-2.5-1.12-5.33,2-5.84a22.86,22.86,0,0,1,3.43-.07,18.09,18.09,0,0,1,3.77.15c2.94.64,3.25,3.49,1.78,5.76L65.12,84l4.63,13.2L78.1,73c6,5.42,27.21,6.51,33.84,10.2,9.18,5.14,8.93,15,10.94,24.2H0c2-9.11,1.79-19.14,10.94-24.2C19.09,78.65,38.11,79,44.78,73Z"/></svg>